<svg width="24" height="24" viewBox="0 0 24 24" fill="none" xmlns="http://www.w3.org/2000/svg">
  <path fill-rule="evenodd" clip-rule="evenodd" d="M8.17 3C7.73 3 7.33 3.28 7.19 3.7L6.58 5.5H5C3.34 5.5 2 6.84 2 8.5V16.5C2 18.16 3.34 19.5 5 19.5H19C20.66 19.5 22 18.16 22 16.5V8.5C22 6.84 20.66 5.5 19 5.5H17.42L16.81 3.7C16.67 3.28 16.27 3 15.83 3H8.17ZM8.17 5L7.35 7.3C7.21 7.72 6.81 8 6.37 8H5C4.45 8 4 8.45 4 9V16C4 16.55 4.45 17 5 17H19C19.55 17 20 16.55 20 16V9C20 8.45 19.55 8 19 8H17.63C17.19 8 16.79 7.72 16.65 7.3L15.83 5H8.17Z" fill="#F75E00"/>
  <path fill-rule="evenodd" clip-rule="evenodd" d="M12 7.5C9.51 7.5 7.5 9.51 7.5 12C7.5 14.49 9.51 16.5 12 16.5C14.49 16.5 16.5 14.49 16.5 12C16.5 9.51 14.49 7.5 12 7.5ZM9.5 12C9.5 13.38 10.62 14.5 12 14.5C13.38 14.5 14.5 13.38 14.5 12C14.5 10.62 13.38 9.5 12 9.5C10.62 9.5 9.5 10.62 9.5 12Z" fill="#F75E00"/>
</svg> 