<svg width="24" height="24" viewBox="0 0 24 24" fill="none" xmlns="http://www.w3.org/2000/svg">
  <path fill-rule="evenodd" clip-rule="evenodd" d="M12 3C7.02944 3 3 7.02944 3 12C3 13.4876 3.36 14.891 4 16.1272V21L8.8728 20C9.8595 20.3526 10.9108 20.5434 12 20.5434C16.9706 20.5434 21 16.5139 21 11.5434C21 6.57285 16.9706 2.54341 12 2.54341V3ZM1 12C1 5.92487 5.92487 1 12 1C18.0751 1 23 5.92487 23 12C23 18.0751 18.0751 23 12 23C10.6088 23 9.2726 22.7365 8.03431 22.2496L6 23L5 23L5 20.7218C2.79222 18.8844 1 15.6375 1 12Z" fill="#F75E00"/>
  <path d="M8 13C8.55228 13 9 12.5523 9 12C9 11.4477 8.55228 11 8 11C7.44772 11 7 11.4477 7 12C7 12.5523 7.44772 13 8 13Z" fill="#F75E00"/>
  <path d="M13 12C13 12.5523 12.5523 13 12 13C11.4477 13 11 12.5523 11 12C11 11.4477 11.4477 11 12 11C12.5523 11 13 11.4477 13 12Z" fill="#F75E00"/>
  <path d="M16 13C16.5523 13 17 12.5523 17 12C17 11.4477 16.5523 11 16 11C15.4477 11 15 11.4477 15 12C15 12.5523 15.4477 13 16 13Z" fill="#F75E00"/>
</svg> 