<svg width="24" height="24" viewBox="0 0 24 24" fill="none" xmlns="http://www.w3.org/2000/svg">
  <path fill-rule="evenodd" clip-rule="evenodd" d="M20 4H4C3.44772 4 3 4.44772 3 5V19C3 19.5523 3.44772 20 4 20H20C20.5523 20 21 19.5523 21 19V5C21 4.44772 20.5523 4 20 4ZM4 2C2.34315 2 1 3.34315 1 5V19C1 20.6569 2.34315 22 4 22H20C21.6569 22 23 20.6569 23 19V5C23 3.34315 21.6569 2 20 2H4Z" fill="#F75E00"/>
  <path fill-rule="evenodd" clip-rule="evenodd" d="M6 7H18V9H6V7Z" fill="#F75E00"/>
  <path fill-rule="evenodd" clip-rule="evenodd" d="M6 11H18V13H6V11Z" fill="#F75E00"/>
  <path fill-rule="evenodd" clip-rule="evenodd" d="M6 15H13V17H6V15Z" fill="#F75E00"/>
</svg> 