<svg width="24" height="24" viewBox="0 0 24 24" fill="none" xmlns="http://www.w3.org/2000/svg">
  <path d="M7 2C4.79086 2 3 3.79086 3 6V18C3 20.2091 4.79086 22 7 22H17C19.2091 22 21 20.2091 21 18V6C21 3.79086 19.2091 2 17 2H7ZM7 4H17C18.1046 4 19 4.89543 19 6V18C19 19.1046 18.1046 20 17 20H7C5.89543 20 5 19.1046 5 18V6C5 4.89543 5.89543 4 7 4Z" fill="#F75E00"/>
  <path d="M7 7H17V9H7V7Z" fill="#F75E00"/>
  <path d="M7 11H17V13H7V11Z" fill="#F75E00"/>
  <path d="M7 15H13V17H7V15Z" fill="#F75E00"/>
</svg> 