<svg width="24" height="24" viewBox="0 0 24 24" fill="none" xmlns="http://www.w3.org/2000/svg">
  <path fill-rule="evenodd" clip-rule="evenodd" d="M6 2C3.79086 2 2 3.79086 2 6V18C2 20.2091 3.79086 22 6 22H18C20.2091 22 22 20.2091 22 18V6C22 3.79086 20.2091 2 18 2H6ZM4 6C4 4.89543 4.89543 4 6 4H18C19.1046 4 20 4.89543 20 6V18C20 19.1046 19.1046 20 18 20H6C4.89543 20 4 19.1046 4 18V6Z" fill="#F75E00"/>
  <circle cx="7.5" cy="8.5" r="1.5" fill="#F75E00"/>
  <circle cx="7.5" cy="12.5" r="1.5" fill="#F75E00"/>
  <circle cx="7.5" cy="16.5" r="1.5" fill="#F75E00"/>
  <path d="M10 8.5C10 7.94772 10.4477 7.5 11 7.5H17C17.5523 7.5 18 7.94772 18 8.5C18 9.05228 17.5523 9.5 17 9.5H11C10.4477 9.5 10 9.05228 10 8.5Z" fill="#F75E00"/>
  <path d="M10 12.5C10 11.9477 10.4477 11.5 11 11.5H17C17.5523 11.5 18 11.9477 18 12.5C18 13.0523 17.5523 13.5 17 13.5H11C10.4477 13.5 10 13.0523 10 12.5Z" fill="#F75E00"/>
  <path d="M10 16.5C10 15.9477 10.4477 15.5 11 15.5H17C17.5523 15.5 18 15.9477 18 16.5C18 17.0523 17.5523 17.5 17 17.5H11C10.4477 17.5 10 17.0523 10 16.5Z" fill="#F75E00"/>
</svg> 